<?xml version="1.0" encoding="UTF-8" standalone="no"?>
<svg
   xmlns:dc="http://purl.org/dc/elements/1.1/"
   xmlns:cc="http://creativecommons.org/ns#"
   xmlns:rdf="http://www.w3.org/1999/02/22-rdf-syntax-ns#"
   xmlns:svg="http://www.w3.org/2000/svg"
   xmlns="http://www.w3.org/2000/svg"
   viewBox="0 0 1130.28 246.82001"
   height="246.82001"
   width="1130.28"
   xml:space="preserve"
   id="svg2"
   version="1.1"><metadata
     id="metadata8"><rdf:RDF><cc:Work
         rdf:about=""><dc:format>image/svg+xml</dc:format><dc:type
           rdf:resource="http://purl.org/dc/dcmitype/StillImage" /></cc:Work></rdf:RDF></metadata><defs
     id="defs6"><clipPath
       id="clipPath18"
       clipPathUnits="userSpaceOnUse"><path
         id="path16"
         d="M 0,185.115 H 847.71 V 0 H 0 Z" /></clipPath></defs><g
     transform="matrix(1.3333333,0,0,-1.3333333,0,246.82)"
     id="g10"><g
       id="g12"><g
         clip-path="url(#clipPath18)"
         id="g14"><g
           transform="translate(520.7669,141.457)"
           id="g20"><path
             id="path22"
             style="fill:#fefefe;fill-opacity:1;fill-rule:nonzero;stroke:none"
             d="M 0,0 C -5.893,2.153 -11.112,3.659 -16.729,3.371 -24.183,2.99 -29.06,-0.93 -29.853,-8.35 c -0.561,-5.255 -2.143,-11.65 0.6,-15.567 2.205,-3.148 8.727,-0.844 13.322,-0.957 7.827,-0.191 15.666,0.11 23.491,-0.127 3.416,-0.104 4.614,0.766 4.525,4.377 -0.246,9.992 0.069,19.997 -0.168,29.989 -0.086,3.61 0.713,4.923 4.616,4.812 8.46,-0.24 8.467,-0.008 8.467,-8.368 0,-30.16 -0.001,-60.319 0,-90.478 0,-1.499 -0.04,-3.001 0.021,-4.498 0.44,-10.935 6.603,-15.243 16.999,-11.903 0.781,0.251 1.564,0.493 2.332,0.735 0.236,-0.353 0.527,-0.585 0.54,-0.833 0.626,-11.978 -0.38,-12.992 -12.766,-12.932 -13.043,0.064 -20.089,7.052 -20.117,20.071 -0.038,17.662 -0.101,35.325 0.066,52.986 0.034,3.528 -1.045,4.52 -4.508,4.457 -10.994,-0.201 -21.997,-0.229 -32.988,0.011 -3.745,0.082 -4.796,-1.012 -4.766,-4.756 0.169,-21.827 -0.032,-43.656 0.182,-65.482 0.041,-4.198 -1.161,-5.348 -5.274,-5.21 -8.448,0.283 -8.455,0.059 -8.455,8.452 0,20.661 -0.105,41.324 0.09,61.984 0.039,3.999 -1.159,5.101 -5.07,5.012 -10.825,-0.246 -21.663,-0.253 -32.487,0.004 -3.866,0.092 -4.727,-1.231 -4.701,-4.862 0.152,-21.66 -0.033,-43.323 0.169,-64.982 0.038,-4.186 -0.743,-6.373 -5.375,-5.542 -1.13,0.203 -2.348,0.17 -3.491,0.004 -3.468,-0.501 -4.509,0.813 -4.483,4.366 0.162,21.993 -0.011,43.989 0.168,65.982 0.031,3.882 -0.948,5.524 -4.961,4.99 -1.965,-0.261 -3.993,-0.047 -5.993,-0.045 -6.336,0.005 -6.076,0.018 -6.4,6.57 -0.205,4.149 1.038,5.348 5.224,5.267 12.039,-0.232 12.025,-0.042 12.057,12.085 0.007,2.66 -0.108,5.368 0.325,7.972 2.385,14.375 12.811,21.934 28.12,20.522 2.317,-0.214 4.639,-0.475 6.929,-0.877 7.91,-1.387 10.119,-4.959 8.368,-12.841 -0.64,-2.876 -2.265,-1.302 -3.317,-0.886 -4.917,1.939 -9.988,2.535 -15.198,2.092 -5.661,-0.482 -9.681,-3.817 -11.088,-9.244 -1.396,-5.391 -0.914,-10.916 -0.984,-16.401 -0.025,-2.016 0.976,-2.542 2.784,-2.537 12.163,0.035 24.327,0.068 36.49,-0.017 2.71,-0.018 2.792,1.508 2.848,3.518 0.147,5.318 -0.357,10.636 0.461,15.958 2.092,13.606 10.079,20.834 23.943,21.26 4.842,0.149 9.587,-0.697 14.327,-1.695 C -1.336,13.32 0.61,11.717 0.056,7.673 -0.256,5.396 0,3.041 0,0" /></g><g
           transform="translate(646.6653,104.3227)"
           id="g24"><path
             id="path26"
             style="fill:#fefefe;fill-opacity:1;fill-rule:nonzero;stroke:none"
             d="m 0,0 c 7.588,7.53 15.657,12.201 25.308,13.756 5.79,0.933 11.657,1.127 17.388,-0.046 14.213,-2.907 23.637,-13.383 24.191,-28.469 0.695,-18.964 0.275,-37.968 0.419,-56.954 0.018,-2.433 -0.954,-3.007 -3.235,-3.133 -9.974,-0.55 -9.969,-0.626 -9.969,9.315 -10e-4,13.992 0.191,27.988 -0.067,41.976 -0.183,9.917 -2.684,18.898 -12.898,23.42 C 28.296,5.55 7.086,-2.111 0.583,-14.664 c -0.918,-1.771 -0.729,-3.552 -0.731,-5.351 -0.028,-16.49 -0.135,-32.983 0.069,-49.471 0.049,-3.944 -0.689,-5.582 -5.096,-5.417 -8.61,0.323 -8.62,0.058 -8.62,8.764 0,24.487 0.092,48.973 -0.092,73.458 -0.029,3.955 1.044,5.096 4.989,4.984 8.62,-0.245 8.624,-0.033 8.737,-8.664 C -0.149,2.814 -0.09,1.991 0,0" /></g><g
           transform="translate(586.8714,73.5283)"
           id="g28"><path
             id="path30"
             style="fill:#fefefe;fill-opacity:1;fill-rule:nonzero;stroke:none"
             d="m 0,0 c -0.001,12.833 0.104,25.667 -0.071,38.497 -0.045,3.351 0.682,4.656 4.352,4.599 8.784,-0.135 8.787,0.062 8.787,-8.594 0,-24.332 -0.097,-48.664 0.094,-72.995 0.033,-4.198 -0.759,-6.35 -5.384,-5.54 -1.293,0.227 -2.68,0.184 -3.989,0.006 -3.241,-0.439 -3.873,1.111 -3.845,4.029 C 0.071,-26.666 0,-13.333 0,0" /></g><g
           transform="translate(73.2484,97.6557)"
           id="g32"><path
             id="path34"
             style="fill:#fefefe;fill-opacity:1;fill-rule:nonzero;stroke:none"
             d="m 0,0 c 13.813,-0.001 27.625,-0.025 41.438,0.014 3.688,0.011 6.301,-1.18 6.204,-5.332 -0.092,-3.883 -2.657,-4.945 -6.093,-4.942 -27.459,0.019 -54.918,0.027 -82.376,-0.014 -3.626,-0.005 -6.497,1.067 -6.534,5.094 -0.037,4.013 2.764,5.214 6.423,5.201 C -27.292,-0.028 -13.646,0.001 0,0" /></g><g
           transform="translate(593.5745,137.3681)"
           id="g36"><path
             id="path38"
             style="fill:#fdfefe;fill-opacity:1;fill-rule:nonzero;stroke:none"
             d="m 0,0 c -5.708,0.025 -8.972,3.275 -8.979,8.94 -0.006,5.665 3.353,9.202 8.761,9.222 C 5.433,18.184 9.213,14.447 9.191,8.861 9.17,3.461 5.554,-0.024 0,0" /></g><g
           transform="translate(348.0521,46.2841)"
           id="g40"><path
             id="path42"
             style="fill:#fefefe;fill-opacity:1;fill-rule:nonzero;stroke:none"
             d="m 0,0 c -6.971,-4.184 -14.399,-6.021 -24.342,-6.02 -26.8,-1.371 -47.035,22.111 -49.19,44.963 -1.544,16.376 1.824,31.057 12.845,43.552 13.404,15.196 30.557,19.222 49.438,14.475 C 7.268,92.315 18.503,79.186 23.479,61.126 30.166,36.859 20.426,12.259 0,0 M -23.911,111.71 C -57.721,111.883 -87.969,85.676 -88.021,46.422 -88.07,8.575 -61.294,-18.92 -24.367,-18.927 9.504,-20.203 39.502,7.021 39.367,46.456 39.229,86.824 7.742,111.55 -23.911,111.71" /></g><g
           transform="translate(195.4022,90.5781)"
           id="g44"><path
             id="path46"
             style="fill:#fefefe;fill-opacity:1;fill-rule:nonzero;stroke:none"
             d="M 0,0 C -14.775,-14.41 -29.456,-28.915 -44.32,-43.538 V 48.68 c 3.183,-3.284 5.663,-5.893 8.197,-8.449 C -24.395,28.402 -12.646,16.595 -0.923,4.762 0.403,3.423 2.412,2.352 0,0 m 11.466,7.123 c -18.864,19.063 -37.785,38.07 -56.661,57.121 -1.85,1.867 -3.807,3.506 -6.556,2.405 -2.843,-1.138 -3.635,-3.651 -3.618,-6.534 0.03,-4.997 -0.284,-10.016 0.089,-14.985 0.324,-4.335 -1.351,-5.319 -5.382,-5.169 -7.984,0.297 -15.987,0.088 -23.983,0.087 -15.659,-0.001 -31.317,0.029 -46.975,-0.02 -5.102,-0.016 -7.978,-3.077 -6.571,-6.796 1.255,-3.316 4.038,-3.437 7.007,-3.432 23.488,0.038 46.977,-0.112 70.462,0.133 4.565,0.048 5.523,-1.382 5.452,-5.645 -0.25,-14.988 -0.237,-29.985 -0.005,-44.974 0.064,-4.079 -0.951,-5.366 -5.213,-5.331 -25.151,0.206 -50.305,0.083 -75.459,0.12 -3.696,0.005 -6.888,-0.578 -6.829,-5.188 0.058,-4.598 3.301,-5.093 6.964,-5.077 12.659,0.055 25.319,0.021 37.979,0.019 12.66,-10e-4 25.322,-0.11 37.979,0.072 3.383,0.049 4.769,-0.742 4.562,-4.376 -0.294,-5.147 -0.045,-10.324 -0.081,-15.487 -0.02,-2.838 0.564,-5.411 3.375,-6.691 2.985,-1.359 4.998,0.47 6.956,2.445 18.763,18.929 37.562,37.822 56.316,56.76 4.199,4.239 4.256,6.437 0.192,10.543" /></g><g
           transform="translate(803.2405,80.4335)"
           id="g48"><path
             id="path50"
             style="fill:#fefefe;fill-opacity:1;fill-rule:nonzero;stroke:none"
             d="m 0,0 c -7.972,0.359 -15.971,0.098 -23.958,0.098 -8.319,0.001 -16.644,0.143 -24.958,-0.069 -3.365,-0.086 -3.984,1.147 -3.36,4.112 2.569,12.199 14.428,21.758 27.499,22.049 C -9.197,26.537 0.533,19.555 4.163,5.581 5.151,1.777 4.812,-0.217 0,0 m -1.993,33.237 c -17.669,9.931 -41.198,5.513 -54.653,-10.659 -13.323,-16.012 -13.294,-43.224 -0.303,-58.877 15.858,-19.109 43.139,-20.155 61.827,-12.755 7.556,2.992 7.696,3.88 7.437,11.951 -0.101,3.193 -0.91,3.846 -3.76,2.226 -9.115,-5.181 -19.001,-6.703 -29.366,-6.075 -15.31,0.927 -28.168,11.09 -31.396,24.893 -0.835,3.567 -0.569,5.508 4.056,5.361 10.317,-0.327 20.651,-0.102 30.979,-0.102 10.66,0.001 21.32,-0.002 31.982,0.004 1.809,0.002 3.648,-0.347 3.75,2.558 0.473,13.453 -6.267,33.445 -20.553,41.475" /></g></g></g></g></svg>