<svg id="Layer_3" data-name="Layer 3" xmlns="http://www.w3.org/2000/svg" viewBox="0 0 335.49 248.68"><defs><style>.cls-1{fill:none;stroke:#e83372;stroke-miterlimit:10;stroke-width:9px;}</style></defs><title>offline_icons</title><path class="cls-1" d="M77.62,94.47C64.34,86.3,68.09,63.1,73.83,54.85c15.79-22.68,50.5-36.93,86-22.17,30.48,12.67,46.79,46.6,43.91,76.6-2.79,29.17-23,46.81-29.61,52.59-9.17,8-30.72,26.83-52.6,19.41-12.31-4.18-25-16.77-24.51-29.11.64-14.8,19.15-22.21,16.85-34.72C111.06,102.13,86.35,99.84,77.62,94.47Z"/><circle class="cls-1" cx="100.28" cy="71.17" r="10.4"/><circle class="cls-1" cx="132.03" cy="60.77" r="10.4"/><circle class="cls-1" cx="164.11" cy="71.17" r="10.4"/><circle class="cls-1" cx="172.35" cy="100.99" r="10.4"/><circle class="cls-1" cx="164.11" cy="134.74" r="10.4"/><path class="cls-1" d="M127.15,150.05c0,5.75.22,10.4-5.53,10.4s-4.94-4.65-4.94-10.4-.8-10.4,4.94-10.4S127.15,144.3,127.15,150.05Z"/><path class="cls-1" d="M165.45,197.11c-3.72-4.08,28.44-39.14,36.76-47.49,37.3-37.45,54.13-51,59.24-48.63,9.73,4.48-15.58,29.16-45,56.29C213.2,160.22,168.33,200.27,165.45,197.11Z"/><path class="cls-1" d="M152.47,197.28c-10,6.38-16.14,17.19-18.17,26.38-1.7,7.67,31.22-3.8,35.4-15.06C172.15,202,161.94,191.23,152.47,197.28Z"/></svg>