<svg id="Layer_3" data-name="Layer 3" xmlns="http://www.w3.org/2000/svg" viewBox="0 0 237.62 232.85"><defs><style>.cls-1{fill:#e83372;}</style></defs><title>offline_icons</title><g id="Layer_2" data-name="Layer 2"><path class="cls-1" d="M195,118.6c0-.13,0-.26-.05-.39-1.18-6.48-5.81-11.27-9.54-14.44-1.05-.89-5.13-4.12-8.07-4.22-3.59-.12-36.47-.25-41.24-.18a1.07,1.07,0,0,1-.84-1.79c2-1.79,1.84-5.85,1.56-7.2-.72-3.41-4.72-6.93-12.83-6.89h0v8.08h0a4,4,0,0,1,4,5c-.55,2.44-1.23,5.25-1.84,7-1.28,3.7,1.87,3.87,1.87,3.87s40.68-.85,46.38.09c3.21.53,6.45,3.08,8.67,5.21a1.78,1.78,0,0,1-1.23,3.07l-68.8.32v7.48h77.15A4.79,4.79,0,0,0,195,118.6Z"/><path class="cls-1" d="M53,118.6c0-.13,0-.26,0-.39,1.18-6.48,5.81-11.27,9.54-14.44,1.05-.89,5.13-4.12,8.06-4.22,3.59-.12,36.47-.25,41.24-.18a1.08,1.08,0,0,0,.85-1.79c-2-1.79-1.85-5.85-1.56-7.2.72-3.41,4.71-6.93,12.82-6.89h0v8.08h0a4.06,4.06,0,0,0-4,5c.55,2.44,1.24,5.25,1.85,7,1.28,3.7-1.87,3.87-1.87,3.87s-40.68-.85-46.39.09c-2.52.41-5.06,2.08-7.1,3.8a2.54,2.54,0,0,0,1.6,4.49l55.87.31v7.48H57.89A4.79,4.79,0,0,1,53,118.6Z"/><path class="cls-1" d="M214.27,128.87a3.43,3.43,0,0,0-.57-.19c-.76-.17-52.15-.17-96.68-.13v9.13h68a2.07,2.07,0,0,1,2.08,2c.18,9.57,1.37,49.22.35,52.28-.46,1.37-4.3,7.66-9.07,8.34-2.37.34-35.59.34-61.36.26v8.07c26-.1,59.21-.3,63-.33a1.91,1.91,0,0,0,.91-.22,26.76,26.76,0,0,0,8.74-7.27c4.08-5.28,5.78-7.66,6.12-9.87.26-1.68.13-27.37,0-39.74a4.24,4.24,0,0,1,7.37-2.91.86.86,0,0,1,.07.1c1.61,1.93,6.6,3.87,11.24,3.4a5.66,5.66,0,0,0,2.93-1.18,8.82,8.82,0,0,0,3.2-6.94l0-6.31C220.64,133.23,218.14,130.43,214.27,128.87Zm-2.19,11.89a2.08,2.08,0,0,1-3.18,1.63c-3-1.86-7.76-4.81-8.05-4.71l9.18.16a2.09,2.09,0,0,1,2.05,2v.25C212.09,140.32,212.09,140.54,212.08,140.76Z"/><path class="cls-1" d="M28,137.4l0,6.31a8.82,8.82,0,0,0,3.2,6.94,5.66,5.66,0,0,0,2.93,1.18c4.64.47,9.63-1.47,11.23-3.4l.08-.1a4.24,4.24,0,0,1,7.37,2.91c-.08,12.37-.21,38.06,0,39.74.34,2.21,2.05,4.59,6.13,9.87a26.66,26.66,0,0,0,8.74,7.27,1.91,1.91,0,0,0,.91.22c3.74,0,30,.23,56,.33V200.6c-25.77.08-52,.08-54.36-.26-4.77-.68-7.45-6.37-9-8.6-.72-1.05.06-42.45.24-52a2.07,2.07,0,0,1,2.08-2h61v-9.13c-44.53,0-88.92,0-89.68.13a3.15,3.15,0,0,0-.57.19C30.52,130.43,28,133.23,28,137.4Zm8.55,2.69v-.25a2.09,2.09,0,0,1,2.05-2l9.18-.16c-.29-.1-5.08,2.85-8.05,4.71a2.08,2.08,0,0,1-3.18-1.63C36.57,140.54,36.56,140.32,36.57,140.09Z"/><path class="cls-1" d="M104.77,35.4c-.38,3.21-2.41,3.79-3.15,6.47-.8,2.87.42,6.64,1.87,8.74,2.55,3.7,3.91,4,4.7,6.63,1.54,5.17-.57,9.73-1.13,11.36-.87,2.54-2,5.64-4.59,6.29-1.9.46-3.5,0-4.17-1.61-.41-1-.47-3.07.89-6.17a25.8,25.8,0,0,0,1.66-7c-.35-1.92-1.44-3.09-3.47-5.26C93.06,50.2,94.56,42.06,94.7,41c.08-.56,1.2-7.22,6.15-9a3.7,3.7,0,0,1,3.32.51C105,33.19,104.86,34.59,104.77,35.4Z"/><path class="cls-1" d="M128,35.4c-.38,3.21-2.4,3.79-3.15,6.47-.79,2.87.42,6.64,1.87,8.74,2.55,3.7,3.92,4,4.71,6.63,1.53,5.17-.58,9.73-1.13,11.36-.87,2.54-2,5.64-4.6,6.29-1.9.46-3.49,0-4.17-1.61-.41-1-.47-3.07.89-6.17a25.52,25.52,0,0,0,1.67-7c-.36-1.92-1.44-3.09-3.47-5.26-4.32-4.63-2.83-12.77-2.68-13.88.07-.56,1.2-7.22,6.15-9a3.68,3.68,0,0,1,3.31.51C128.24,33.19,128.1,34.59,128,35.4Z"/><path class="cls-1" d="M150.47,34.89c-.38,3.21-2.41,3.79-3.15,6.47-.8,2.87.42,6.64,1.87,8.74,2.55,3.7,3.92,4,4.71,6.63,1.53,5.17-.58,9.73-1.13,11.36-.87,2.54-2,5.64-4.6,6.28-1.9.47-3.49,0-4.17-1.6-.41-1-.47-3.07.89-6.17a25,25,0,0,0,1.66-7c-.35-1.91-1.44-3.08-3.46-5.25-4.32-4.63-2.83-12.77-2.68-13.88.07-.56,1.2-7.22,6.14-9a3.76,3.76,0,0,1,3.32.51C150.71,32.68,150.56,34.08,150.47,34.89Z"/></g></svg>