<svg id="Layer_3" data-name="Layer 3" xmlns="http://www.w3.org/2000/svg" viewBox="0 0 194.81 253.28"><defs><style>.cls-1{fill:none;stroke:#e83372;stroke-miterlimit:10;stroke-width:9px;}</style></defs><title>offline_icons</title><path class="cls-1" d="M51.54,173.11a63,63,0,0,0,1,18.38c2.26,10.85,5.94,13.67,7.15,23.49,1.45,11.74-6.27,20.78-.51,20.93,28.77.77,32.38.11,48.09.26,14.64.15,2.79-11.9,4.27-20.76,2.17-12.94,13.77-12.6,25.35-28.77,2.39-3.35,7.83-11.61,8.76-22,.46-5.1,2.69-20.11-7.91-31.63-9.38-10.2-20-18.2-37.88-14-5.48,1.29-10.63,8.5-6.72,16.41,5.66,11.45,23.65,12.83,23.83,19.91.14,5.34-13.95,5.72-23.06,16.2-6.57,7.56-8.83,16.44-9.71,22.81"/><path class="cls-1" d="M43.27,156.23c-2.13,1.59-5.7,5.83,7.22,16.88,4,3.47,9.33,7.16,14.11,2.15C69.79,169.83,50.11,151.15,43.27,156.23Z"/><path class="cls-1" d="M50.2,140.7c-2.33,1.65-6.25,6.07,7.91,17.56,4.44,3.61,10.92,8.07,15.46,2.24C79.2,153.28,57.69,135.42,50.2,140.7Z"/><path class="cls-1" d="M57.77,120.4c-3.11,2.29-8.34,8.42,10.54,24.38,5.92,5,14.86,11.37,20.61,3.11C96.14,137.53,67.76,113.06,57.77,120.4Z"/><path class="cls-1" d="M65.46,104c-2.9,3.45-5.14,9.48,14.42,22.64,6.44,4.33,12.73,10.61,11.83.59C90.42,112.82,73.18,94.83,65.46,104Z"/><path class="cls-1" d="M84.35,90.68c-3.47,1.7-8.28,7.87,7.45,26.94,4.93,6,2.47-1.83,12.51-1.19C116.39,117.19,95.49,85.24,84.35,90.68Z"/><path class="cls-1" d="M114.24,118.31c.29-.29,13.73-12.57,20-18.27a9,9,0,0,1,7.16-2.28c3.57.45,8.61.92,11.28.45A29.66,29.66,0,0,0,170.35,87c7.07-9.77,8.26-22.55,4.09-25.19-.62-.39-9.12,7.74-14.39,12.71a5.08,5.08,0,0,1-7.15-.2l-7.8-8.17a6.21,6.21,0,0,1,.1-8.68L156,46.66A2.15,2.15,0,0,0,154.36,43l-16.88.85a12.64,12.64,0,0,0-8.16,3.56c-4.43,4.29-11.22,10.81-12.45,13.75-1.71,4.1-1.07,8.88-.94,13.53A12.51,12.51,0,0,1,112,84.14L98.73,96.68"/></svg>