<svg id="Layer_3" data-name="Layer 3" xmlns="http://www.w3.org/2000/svg" viewBox="0 0 280.85 253.79"><defs><style>.cls-1{fill:none;stroke:#e83372;stroke-miterlimit:10;stroke-width:9px;}</style></defs><title>offline_icons</title><path class="cls-1" d="M225,141.62H84.77c-4.32,0-9.2-4.88-9.2-10.9h0a10.9,10.9,0,0,1,10.9-10.89H226.72a10.9,10.9,0,0,1,10.9,10.89h0C237.62,136.74,232.74,141.62,225,141.62Z"/><path class="cls-1" d="M87.83,141.62l19.31,72.64A15.89,15.89,0,0,0,122.49,226h62.66a15,15,0,0,0,14.28-10.4l25.59-74"/><path class="cls-1" d="M162.21,119.83c1.94-6.52,3.35-16.18,2.88-19-1.28-7.8-5.22-13.14-7.83-16.68a50,50,0,0,0-6.8-7.49"/><path class="cls-1" d="M129.06,45.83c2.5-.89,1.06-6.95,1.78-9.5,1.61-5.76,7.44-6.66,10-6.72,13.3-.33,8.33,11.06,15.45,8.52,12.76-4.56,23.23,9.44,16.55,16.17-2.81,2.82,12.55,21.15-13.17,21.64-3.12.06-3.11-.9-5.94.68-4.66,2.6-7.29,7.7-11.4,9.17-5.78,2.06-14.37-7-12.21-12.9,1.53-4.21-18.41-4.85-13.66-17.74C117.82,51.36,118.88,49.47,129.06,45.83Z"/></svg>