<svg id="Layer_3" data-name="Layer 3" xmlns="http://www.w3.org/2000/svg" viewBox="0 0 247.4 232.85"><defs><style>.cls-1{fill:#e83372;}.cls-2{fill:none;stroke:#e83372;stroke-miterlimit:10;stroke-width:8px;}</style></defs><title>offline_icons</title><path class="cls-1" d="M151.93,47.62a49.07,49.07,0,0,0-22.65,4.59C103.43,64.38,90.14,93.59,89.62,95c-1.82,4.82-8,22-2.11,42.21,5.49,18.77,18.36,29.73,23,33.62,15,12.46,36.1,17.81,35.24,20.78-.39,1.33-7.94,0-10,0-11.76,0-21.16-6-26.24-9.8-25.32-19-30.89-47.49-30.89-47.49A79.19,79.19,0,0,1,81.7,94c10.06-29,33.89-42.88,40.6-46.47,1.85-1,6.06-6.71,9.43-7.15C139.5,39.33,156.12,47.76,151.93,47.62Z"/><path class="cls-1" d="M130.21,44.94c.12,2.27-9.67,3.58-23.74,9.7C83,64.85,72.94,80.86,68.29,100.28c-1.2,5-4,22.2,3.45,41.93,6.88,18.31,18.13,28.6,23.09,32.12,15.91,11.31,41.58,14.24,40.94,17.26-.29,1.35-12.17,1.42-14.24,1.58-11.73.86-21.55-4.4-26.9-7.82-26.67-17-34.35-45-34.35-45a79.19,79.19,0,0,1,0-40.46c7.86-29.71,30.59-45.29,37-49.37,1.77-1.12,14.11-7.41,17.44-8.1C122.45,40.79,130.09,42.66,130.21,44.94Z"/><path class="cls-1" d="M166.79,178.32c-1-1.82,5-5.47,9.92-11.6,15.09-18.72,9.54-47.26,9.26-48.58-.95-4.58-4.55-20.78-18.26-34.27a63.68,63.68,0,0,0-32.24-16.81c-16.6-3.49-30.81.62-31.58-2.08-.35-1.22,2.3-2.78,3.79-3.66,8.43-5,18-4.23,23.38-3.38,27,4.28,44.36,24.46,44.36,24.46a80.09,80.09,0,0,1,16.7,33.19,76.83,76.83,0,0,1-7.31,54,18.25,18.25,0,0,1-4.47,5.37C175.24,179,167.82,180.14,166.79,178.32Z"/><path class="cls-1" d="M169.82,176.32c-1.37-1.46,3.3-6.11,6.41-12.84,9.51-20.51-2.19-45.61-2.74-46.77-1.94-4-9-18.17-24.69-27.64a60.89,60.89,0,0,0-33.48-8.52c-16,.37-28.12,7.24-29.45,4.9-.6-1,1.47-3,2.63-4.19,6.58-6.4,15.5-7.78,20.67-8.16,25.78-1.9,46.36,13,46.36,13a77.61,77.61,0,0,1,23,27,72.89,72.89,0,0,1,5.79,51.31,16.91,16.91,0,0,1-2.85,5.93C177.74,175.14,171.18,177.77,169.82,176.32Z"/><path class="cls-1" d="M158.43,95.28c-1.13.9.45-.1-4.22-2.73-14.24-8-24.58-6.37-31.66-3.44-5.65,2.34-17.69,7.86-25.4,18.63C90,117.74,86.53,125.42,86.33,129c-.64,11.58,3.62,20.68,1.87,21.51-.79.37-2.13-1.23-2.87-2.14-4.25-5.11-4.56-11.62-4.72-15.36a46.52,46.52,0,0,1,12-32.67,56,56,0,0,1,20.75-15c17.78-7.41,32.47-4,37.3-1.22a12.23,12.23,0,0,1,4.11,2.41C158,89.5,159.56,94.38,158.43,95.28Z"/><path class="cls-1" d="M170.45,107.79c-1.12.9,1.42-2-3.6-3.88-17.24-6.5-22.64-4.63-32.27-2.29-6,1.44-17.7,7.86-25.41,18.64-7.15,10-8.7,17.16-9.6,21.89-2.14,11.39,2.4,20.07.65,20.9-.79.37-2.12-1.23-2.87-2.14-4.25-5.11-4.73-11.62-4.71-15.36.09-18.7,12-32.67,12-32.67a56,56,0,0,1,20.75-15,52.77,52.77,0,0,1,37.31-1.22,12.29,12.29,0,0,1,4.1,2.41C170.06,102,171.58,106.89,170.45,107.79Z"/><path class="cls-1" d="M90.86,161.65c.31-1.41-.21-1.34,4.88-3,17.47-5.85,22.53-10.53,28-18.82,4.55-6.94,8.06-14.38,6.79-26.51s-4.1-18.81-6.39-23c-5.53-10.19-14.54-14-13.7-15.79.37-.79,2.42-.38,3.57-.16,6.52,1.28,11,6,13.36,8.94,11.74,14.55,11.37,32.87,11.37,32.87a56.06,56.06,0,0,1-6.6,24.76A52.69,52.69,0,0,1,104,165.36a12,12,0,0,1-4.7.73C94.82,165.88,90.56,163.07,90.86,161.65Z"/><path class="cls-1" d="M106.64,174c.3-1.41,6.48-1.76,11.57-3.46,17.47-5.85,22.53-10.53,28-18.83,4.54-6.94,6.66-16.2,6.79-26.5.15-12.29-4.1-18.81-6.39-23-5.53-10.19-14.54-14-13.71-15.8.38-.78,0-2.33,1.18-2.33,7.79,0,13.41,8.2,15.76,11.11C161.54,109.66,161.17,128,161.17,128a56.06,56.06,0,0,1-6.6,24.76,52.72,52.72,0,0,1-28.15,24.5,12.29,12.29,0,0,1-4.7.73C117.29,177.77,106.33,175.37,106.64,174Z"/><circle class="cls-2" cx="121.37" cy="118.16" r="78.5"/><circle class="cls-2" cx="44.49" cy="43.73" r="13.6"/><polyline class="cls-2" points="52.07 51.46 62.56 59.71 78.63 72.32"/><polyline class="cls-2" points="161.17 163.11 171.66 171.35 198.19 192.18"/><circle class="cls-2" cx="193.42" cy="41.84" r="13.6" transform="translate(143.71 233.39) rotate(-87.66)"/><polyline class="cls-2" points="185.07 48.83 176.38 59 163.09 74.57"/><path class="cls-1" d="M195.19,194.89c3.13,3.19,13.64,8.61,16.76,9.62-8.11-10.45-10.13-14.38-11-15.32,0,0-1.14-.81-1.24-.87-.62-.37-2,.65-3.51,4.09C196,192.78,194.68,194.36,195.19,194.89Z"/><polyline class="cls-2" points="71.57 167.75 71.57 167.75 48.19 192.06"/><path class="cls-1" d="M45.79,188.8c-3.49,2.8-9.93,12.71-11.25,15.71,11.22-7,15.32-8.63,16.35-9.44l1-1.15c.43-.58-.44-2.1-3.71-3.91C47.81,189.82,46.37,188.34,45.79,188.8Z"/></svg>