<svg id="Layer_3" data-name="Layer 3" xmlns="http://www.w3.org/2000/svg" viewBox="0 0 275.74 216"><defs><style>.cls-1{fill:none;stroke:#e83372;stroke-miterlimit:10;stroke-width:9px;}</style></defs><title>offline_icons</title><circle class="cls-1" cx="99.79" cy="113.81" r="10.4"/><circle class="cls-1" cx="170.98" cy="113.81" r="10.4"/><path class="cls-1" d="M79.25,35.1l112.65-.93a37.84,37.84,0,0,1,35.59,24.16s13.14,26.8,14.8,39.2c1.77,13.23-5.77,28.39-15.82,30C190,133.35,173.11,60.46,168,54.19a21.19,21.19,0,0,0-15.28-7.74c-13.48-.72-40.49.89-44.55,4-5,3.84-31.54,72.84-53.63,76.8-11.62,2.08-29.23-8.81-23.87-33.83C33.74,79,43.82,61.82,51.78,49.88A33.33,33.33,0,0,1,79.25,35.1Z"/><path class="cls-1" d="M68.57,117.61c0,7.4,0,80.7,69.3,80.52C204.64,198,204,128.4,204.5,121"/><path class="cls-1" d="M112.91,139.5c5.15-9,21.06-8.82,25.47-8.78,3.76,0,21.43.22,26.56,10.22,6.61,12.9-8.65,29.49-26.16,29.27C120.93,170,105.76,152,112.91,139.5Z"/></svg>