<svg id="Layer_3" data-name="Layer 3" xmlns="http://www.w3.org/2000/svg" viewBox="0 0 235.4 210.89"><defs><style>.cls-1{fill:none;stroke:#e83372;stroke-miterlimit:10;stroke-width:9px;}.cls-2{fill:#e83372;}</style></defs><title>offline_icons</title><path class="cls-1" d="M165.22,55.6c3.66,4.54,6.61,7.63,4.91,14.1-.59,2.24-10.49,10.22-24.09,21.56-12.42,10.36-8.89,16.6-4.22,24.89,7.11,12.62,14.69,20.57,15.8,30.57.67,6.05-2.22,10.05-11.92,9.88-8-.14-49.33-1.87-63.23-1.83-2.84,0-5-1.79-6.22-4.35a10.86,10.86,0,0,1-.67-7.59c.64-2.46,2.1-5.3,5.4-5.68s16.43-.4,27.06-.67a7.66,7.66,0,0,0,6.16-12C106.09,112.59,96.71,97.3,95,94c-2-3.84-1.3-11,6.47-16s18-12,27.46-17.92c5.27-3.3,3.55-13.63-4.19-13.82-11.87-.3-39.35,1.12-41.85,0-3.4-1.53-5.39-5.74-1.3-9.84,6.09-6.09,25.57-9.06,39-9.06C134.43,27.32,158.51,47.28,165.22,55.6Z"/><path class="cls-1" d="M154.55,82.81v13a9.47,9.47,0,0,0,9.61,9.46l38.71-.59a13.19,13.19,0,0,0,6.07-1.49c2.65-1.44.79-8.24-4.68-9.83-1.76-.51-15.78-.67-26.83-.92a7.27,7.27,0,0,1-7.11-7.28l-.19-15.49"/><path class="cls-1" d="M108.22,155.16l-23,26.47a8.84,8.84,0,0,0-1.24,10.09A5.9,5.9,0,0,0,86.06,194c10.9,6.12,47.56-38.83,47.56-38.83"/><path class="cls-2" d="M29.38,58s54,.43,66.67.38c4,0,4.89,1.79,4.8,4.56,0,1.37-.37,3.55-3.91,3.55-6.89,0-55.61-.27-67.34-.43a4.09,4.09,0,0,1-3.86-4.19A3.67,3.67,0,0,1,29.38,58Z"/><path class="cls-2" d="M28.1,112.17s54,.43,66.67.38c4,0,4.89,1.79,4.8,4.56,0,1.36-.37,3.55-3.91,3.55-6.89,0-55.61-.27-67.34-.44A4.08,4.08,0,0,1,24.47,116,3.66,3.66,0,0,1,28.1,112.17Z"/><path class="cls-2" d="M13.81,94.3s54,.43,66.67.37c3.94,0,4.88,1.8,4.8,4.56,0,1.37-.37,3.55-3.92,3.55-6.88,0-55.61-.26-67.33-.43a4.08,4.08,0,0,1-3.86-4.18A3.66,3.66,0,0,1,13.81,94.3Z"/><path class="cls-2" d="M13.81,76.17s54,.43,66.67.38c3.94,0,4.88,1.79,4.8,4.56,0,1.36-.37,3.55-3.92,3.55-6.88,0-55.61-.27-67.33-.44A4.08,4.08,0,0,1,10.17,80,3.66,3.66,0,0,1,13.81,76.17Z"/><circle class="cls-1" cx="187.17" cy="46.22" r="18.9"/></svg>