<svg id="Layer_3" data-name="Layer 3" xmlns="http://www.w3.org/2000/svg" viewBox="0 0 291.06 236.43"><defs><style>.cls-1{fill:none;stroke:#e83372;stroke-miterlimit:10;stroke-width:9px;}</style></defs><title>offline_icons</title><path class="cls-1" d="M73,93.86a45.18,45.18,0,0,1-3.25-42.65c9.64-21.06,34.59-28.24,54-33,15.08-3.68,37.63-7.36,58.7,4.69,2.12,1.22,22.32,11.73,20.38,26.4-1.5,11.33-13.53,16.34-52.48,37-34.06,18.07-46.31,27.33-60.53,22.42C80.74,105.63,75.76,98,73,93.86Z"/><path class="cls-1" d="M162.13,78.58c21.93,14.25,34.41,21.55,44.41,28.32,3,2,8.32,5,10.68,4.4,6.84-1.77,11.78-24.91,1-41.08C214.36,64.5,206,59.74,203,58"/><path class="cls-1" d="M82.92,103.63c-4.17,27.88-6.92,76.83,26.56,100.44,4.71,3.33,20.57,13.84,48.79,11.47"/><path class="cls-1" d="M217.22,111.3c4.18,27.88,7.67,69.16-25.8,92.77-4.72,3.33-20.58,13.84-48.79,11.47"/><ellipse class="cls-1" cx="121.78" cy="130.1" rx="20.72" ry="18.51" transform="translate(-3.37 3.24) rotate(-1.5)"/><ellipse class="cls-1" cx="180.04" cy="130.35" rx="20.72" ry="18.51" transform="translate(-3.36 4.77) rotate(-1.5)"/><path class="cls-1" d="M109.37,125s4.95,7.92,12.51,6.83A21.53,21.53,0,0,0,134.19,125"/><path class="cls-1" d="M192.35,125s-4.95,7.92-12.5,6.83A21.54,21.54,0,0,1,167.53,125"/><path class="cls-1" d="M132.06,177.76c.29-3.12,7.08-6.38,11.78-5,4,1.17,4.84,5.2,7.72,5s3.2-4.68,6.91-6.17c4.95-2,13.56,2.39,13.81,6.56.27,4.4-8.78,8.79-16.25,9.63C144.32,189.1,131.66,182.22,132.06,177.76Z"/><path class="cls-1" d="M117.45,172.45c8.52-12.7,25.86-12,32.49-12,4.74,0,31.38.19,36.44,14,2,5.4-.22,10.47-.71,11.6-5.81,13.34-26.94,14.63-31.26,14.89-5.37.33-22.36,1.54-34-11.2C119.59,188.77,112.68,179.57,117.45,172.45Z"/></svg>